<svg id="svg" version="1.1" xmlns="http://www.w3.org/2000/svg" xmlns:xlink="http://www.w3.org/1999/xlink" width="400"
  height="200" viewBox="105, 60, 200, 110">
  <g id="svgg">
    <path id="path0"
      d="M281.044 125.786 C 281.297 125.825,281.672 125.824,281.877 125.784 C 282.082 125.744,281.875 125.713,281.417 125.714 C 280.958 125.716,280.791 125.748,281.044 125.786 M177.750 130.311 C 173.492 131.431,173.142 138.724,177.286 139.966 C 178.584 140.355,181.454 140.093,181.609 139.572 C 181.704 139.254,181.190 138.773,180.959 138.965 C 179.638 140.061,176.646 139.032,175.822 137.198 C 174.236 133.665,177.142 130.225,180.792 131.315 C 181.271 131.458,181.944 131.015,181.639 130.758 C 181.127 130.327,178.734 130.052,177.750 130.311 M195.147 130.386 C 190.056 132.298,191.212 140.163,196.583 140.163 C 202.676 140.163,203.095 130.563,197.017 130.229 C 196.195 130.184,195.538 130.239,195.147 130.386 M232.917 130.406 C 230.189 131.415,230.852 134.107,234.175 135.513 C 236.810 136.628,237.392 137.717,235.983 138.899 C 235.435 139.359,233.608 139.461,232.490 139.096 C 232.017 138.941,231.610 138.838,231.586 138.866 C 230.385 140.252,235.530 140.718,237.055 139.362 C 238.685 137.913,237.909 136.273,234.917 134.839 C 232.852 133.849,232.333 133.396,232.333 132.584 C 232.333 131.313,233.811 130.704,235.704 131.195 C 236.653 131.441,237.000 131.365,237.000 130.910 C 237.000 130.324,234.105 129.966,232.917 130.406 M212.667 135.155 L 212.667 140.000 213.167 140.000 L 213.667 140.000 213.672 136.208 C 213.676 133.295,213.721 132.494,213.866 132.750 C 213.970 132.933,214.103 133.121,214.162 133.167 C 214.279 133.258,215.268 134.573,215.667 135.168 C 215.804 135.373,215.997 135.625,216.095 135.729 C 216.193 135.832,216.563 136.329,216.917 136.833 C 217.271 137.337,217.641 137.838,217.739 137.946 C 217.836 138.054,218.211 138.561,218.571 139.071 C 219.045 139.745,219.332 140.000,219.612 140.000 L 220.000 140.000 220.000 135.167 L 220.000 130.333 219.500 130.333 L 219.000 130.333 219.000 134.100 L 219.000 137.867 216.197 134.142 C 214.253 131.559,213.283 130.400,213.030 130.363 L 212.667 130.310 212.667 135.155 M248.866 134.235 L 248.917 138.137 249.426 138.777 C 251.055 140.823,254.692 140.618,255.826 138.417 C 256.236 137.620,256.252 137.477,256.301 133.964 L 256.351 130.333 255.842 130.333 L 255.333 130.333 255.333 133.580 C 255.333 138.167,254.767 139.333,252.542 139.333 C 250.321 139.333,249.833 138.333,249.833 133.781 L 249.833 130.333 249.325 130.333 L 248.816 130.333 248.866 134.235 M268.167 135.167 L 268.167 140.000 271.178 140.000 L 274.190 140.000 274.137 139.625 C 274.084 139.258,274.032 139.249,271.625 139.204 L 269.167 139.158 269.167 134.746 L 269.167 130.333 268.667 130.333 L 268.167 130.333 268.167 135.167 M283.500 130.750 L 283.500 131.167 285.250 131.167 L 287.000 131.167 287.000 135.583 L 287.000 140.000 287.500 140.000 L 288.000 140.000 288.000 135.583 L 288.000 131.167 289.810 131.167 L 291.620 131.167 291.541 130.750 L 291.461 130.333 287.481 130.333 L 283.500 130.333 283.500 130.750 M198.317 131.472 C 200.506 132.608,200.938 136.238,199.117 138.199 C 196.807 140.687,193.001 138.844,193.000 135.238 C 193.000 132.127,195.782 130.156,198.317 131.472 "
      stroke="none" fill="#ffffff" fill-rule="evenodd"></path>
    <path id="path1"
      d="M280.626 84.762 C 280.589 84.799,278.266 85.027,277.708 85.048 C 277.594 85.052,277.500 85.111,277.500 85.179 C 277.500 85.247,277.351 85.263,277.169 85.216 C 276.987 85.168,276.706 85.187,276.544 85.257 C 276.382 85.327,276.063 85.414,275.833 85.450 C 274.824 85.610,274.162 85.857,274.271 86.034 C 274.340 86.145,274.309 86.171,274.192 86.099 C 274.087 86.034,273.906 86.039,273.792 86.111 C 273.677 86.182,273.508 86.247,273.417 86.255 C 273.175 86.274,272.324 86.627,271.785 86.931 C 271.530 87.075,271.137 87.288,270.913 87.405 C 270.689 87.521,270.546 87.658,270.597 87.708 C 270.648 87.759,270.553 87.789,270.386 87.775 C 270.214 87.761,270.103 87.845,270.129 87.971 C 270.154 88.092,270.107 88.149,270.023 88.098 C 269.939 88.046,269.778 88.115,269.665 88.252 C 269.552 88.388,269.382 88.500,269.288 88.500 C 268.824 88.500,265.833 91.285,265.833 91.717 C 265.833 91.884,265.764 91.977,265.680 91.925 C 265.489 91.807,264.805 92.652,264.929 92.853 C 264.979 92.934,264.936 93.000,264.833 93.000 C 264.731 93.000,264.693 93.075,264.750 93.167 C 264.807 93.258,264.736 93.333,264.593 93.333 C 264.450 93.333,264.333 93.446,264.333 93.583 C 264.333 93.721,264.270 93.833,264.192 93.833 C 264.027 93.833,262.443 97.020,262.246 97.750 C 262.081 98.360,262.085 98.347,261.923 98.716 C 261.851 98.880,261.838 99.060,261.895 99.117 C 261.951 99.173,261.914 99.320,261.811 99.443 C 261.709 99.566,261.682 99.667,261.750 99.667 C 261.818 99.667,261.789 99.770,261.684 99.896 C 261.580 100.022,261.463 100.490,261.426 100.937 C 261.389 101.384,261.290 101.975,261.207 102.250 C 260.942 103.130,260.978 107.882,261.260 109.128 C 261.399 109.745,261.545 110.438,261.584 110.667 C 261.793 111.879,262.021 112.754,262.168 112.901 C 262.259 112.992,262.333 113.183,262.333 113.325 C 262.332 113.715,263.195 115.667,263.368 115.667 C 263.451 115.667,263.477 115.736,263.425 115.820 C 263.373 115.904,263.425 116.074,263.540 116.197 C 263.656 116.321,263.892 116.700,264.065 117.039 C 264.239 117.379,264.447 117.616,264.528 117.566 C 264.609 117.516,264.654 117.543,264.629 117.626 C 264.520 117.987,266.680 120.421,266.918 120.206 C 266.993 120.138,267.005 120.169,266.945 120.273 C 266.817 120.498,267.226 120.885,267.404 120.707 C 267.472 120.639,267.503 120.696,267.472 120.833 C 267.442 120.971,267.506 121.066,267.615 121.045 C 267.724 121.024,267.860 121.155,267.918 121.337 C 267.975 121.518,268.118 121.667,268.235 121.667 C 268.353 121.667,268.584 121.817,268.750 122.000 C 268.916 122.183,269.120 122.333,269.204 122.333 C 269.287 122.333,269.601 122.520,269.901 122.749 C 270.201 122.978,270.496 123.115,270.556 123.055 C 270.617 122.994,270.667 123.044,270.667 123.167 C 270.667 123.289,270.717 123.339,270.778 123.277 C 270.839 123.216,271.035 123.297,271.212 123.458 C 271.390 123.619,271.563 123.735,271.598 123.716 C 271.632 123.697,271.943 123.805,272.289 123.955 C 272.634 124.106,273.029 124.233,273.167 124.236 C 273.304 124.239,273.516 124.338,273.638 124.456 C 273.760 124.574,273.924 124.630,274.002 124.582 C 274.080 124.534,274.188 124.566,274.242 124.654 C 274.297 124.742,274.696 124.871,275.129 124.941 C 276.035 125.086,276.151 125.110,276.208 125.165 C 276.231 125.187,276.469 125.230,276.736 125.261 C 277.004 125.292,277.596 125.398,278.052 125.496 C 279.050 125.710,283.582 125.699,284.750 125.479 C 285.208 125.393,285.871 125.286,286.223 125.241 C 286.574 125.196,287.112 125.055,287.417 124.927 C 287.723 124.799,288.012 124.734,288.059 124.781 C 288.154 124.876,290.809 124.025,291.099 123.807 C 291.199 123.731,291.330 123.719,291.390 123.779 C 291.451 123.840,291.500 123.810,291.500 123.713 C 291.500 123.616,291.695 123.487,291.934 123.427 C 292.879 123.190,293.613 122.000,292.814 122.000 C 292.733 122.000,292.667 121.888,292.667 121.750 C 292.667 121.612,292.587 121.500,292.490 121.500 C 292.393 121.500,292.355 121.433,292.406 121.351 C 292.519 121.167,291.052 118.330,290.694 118.042 C 290.543 117.920,290.517 117.833,290.630 117.833 C 290.741 117.833,290.627 117.493,290.366 117.042 C 290.114 116.606,289.767 115.931,289.595 115.542 C 289.423 115.152,289.215 114.833,289.132 114.833 C 289.048 114.833,289.034 114.920,289.099 115.026 C 289.172 115.143,289.145 115.173,289.031 115.102 C 288.850 114.991,287.274 115.718,287.407 115.851 C 287.443 115.887,287.310 115.928,287.111 115.942 C 286.912 115.956,286.525 116.061,286.250 116.176 C 285.975 116.291,285.603 116.412,285.424 116.446 C 285.245 116.480,285.057 116.563,285.007 116.629 C 284.903 116.768,284.233 116.845,283.208 116.837 C 282.819 116.833,282.500 116.895,282.500 116.973 C 282.500 117.051,281.809 117.019,280.964 116.903 C 280.119 116.787,279.369 116.728,279.297 116.772 C 279.225 116.817,279.167 116.769,279.167 116.667 C 279.167 116.564,279.092 116.527,279.000 116.583 C 278.908 116.640,278.833 116.594,278.833 116.482 C 278.833 116.370,278.787 116.324,278.731 116.380 C 278.592 116.519,276.864 115.535,276.250 114.965 C 275.975 114.710,275.683 114.501,275.602 114.501 C 275.520 114.500,275.346 114.369,275.214 114.208 C 275.083 114.048,275.030 114.022,275.097 114.151 C 275.177 114.306,275.152 114.344,275.023 114.264 C 274.916 114.198,274.873 114.071,274.928 113.982 C 274.983 113.893,274.775 113.542,274.467 113.201 C 274.159 112.860,273.807 112.338,273.683 112.040 C 273.560 111.743,273.381 111.500,273.285 111.500 C 273.190 111.500,273.161 111.450,273.223 111.388 C 273.284 111.327,273.234 111.121,273.111 110.930 C 272.891 110.589,272.287 108.476,272.082 107.333 C 271.902 106.321,272.005 103.401,272.253 102.500 C 272.266 102.454,272.336 102.117,272.410 101.750 C 272.484 101.383,272.646 100.882,272.771 100.636 C 272.896 100.389,272.953 100.071,272.898 99.927 C 272.843 99.784,272.864 99.667,272.944 99.667 C 273.024 99.667,273.276 99.310,273.503 98.875 C 273.731 98.440,273.958 98.046,274.008 98.000 C 274.334 97.703,274.803 96.856,274.703 96.746 C 274.637 96.673,274.662 96.658,274.758 96.712 C 274.853 96.766,275.368 96.366,275.900 95.822 C 276.433 95.278,276.968 94.833,277.089 94.833 C 277.210 94.833,277.410 94.740,277.533 94.625 C 278.123 94.074,278.886 93.780,279.968 93.686 C 280.088 93.675,280.148 93.604,280.101 93.528 C 280.053 93.451,280.121 93.389,280.250 93.389 C 280.379 93.389,280.452 93.443,280.410 93.510 C 280.369 93.577,281.190 93.621,282.235 93.607 C 283.280 93.594,284.107 93.628,284.073 93.683 C 284.039 93.738,284.253 93.800,284.547 93.821 C 284.842 93.842,285.215 93.869,285.375 93.882 C 285.535 93.894,285.667 93.957,285.667 94.021 C 285.667 94.085,285.852 94.117,286.079 94.092 C 286.325 94.065,286.448 94.115,286.386 94.216 C 286.322 94.320,286.418 94.350,286.633 94.294 C 286.826 94.243,287.007 94.270,287.034 94.353 C 287.062 94.436,287.272 94.544,287.501 94.595 C 287.729 94.645,287.992 94.703,288.083 94.723 C 288.175 94.743,288.346 94.819,288.464 94.893 C 289.367 95.457,290.574 94.795,290.085 94.003 C 290.034 93.921,290.088 93.793,290.205 93.719 C 290.523 93.515,290.964 92.623,290.910 92.291 C 290.884 92.130,290.931 92.041,291.015 92.092 C 291.098 92.144,291.167 92.032,291.167 91.843 C 291.167 91.654,291.242 91.500,291.333 91.500 C 291.425 91.500,291.485 91.444,291.466 91.375 C 291.447 91.306,291.565 90.999,291.728 90.693 C 291.891 90.387,291.986 90.038,291.940 89.917 C 291.894 89.797,292.001 89.567,292.178 89.406 C 292.355 89.246,292.500 88.992,292.500 88.841 C 292.500 88.690,292.581 88.486,292.680 88.387 C 292.863 88.203,292.073 87.500,291.683 87.500 C 291.582 87.500,291.500 87.417,291.500 87.316 C 291.500 87.210,291.378 87.178,291.213 87.241 C 291.056 87.301,290.980 87.298,291.044 87.234 C 291.175 87.103,290.424 86.667,290.069 86.667 C 289.945 86.667,289.560 86.520,289.213 86.341 C 288.571 86.010,287.816 85.801,287.292 85.808 C 287.131 85.811,287.000 85.734,287.000 85.638 C 287.000 85.543,286.878 85.511,286.729 85.568 C 286.580 85.626,286.353 85.585,286.225 85.479 C 286.001 85.293,285.008 85.133,283.875 85.099 C 283.577 85.091,283.333 85.038,283.333 84.982 C 283.333 84.927,283.052 84.890,282.708 84.901 C 282.365 84.912,281.765 84.875,281.376 84.820 C 280.987 84.765,280.650 84.739,280.626 84.762 M212.417 85.508 C 211.473 85.643,210.667 85.972,210.667 86.221 C 210.667 86.313,210.618 86.340,210.558 86.280 C 210.392 86.114,208.810 87.865,208.904 88.110 C 208.949 88.228,208.858 88.396,208.701 88.484 C 208.469 88.614,208.409 88.936,208.374 90.248 C 208.350 91.183,208.395 91.815,208.484 91.760 C 208.567 91.708,208.598 91.809,208.553 91.983 C 208.507 92.157,208.560 92.467,208.670 92.673 C 208.780 92.878,208.905 93.268,208.947 93.540 C 208.990 93.811,209.163 94.261,209.332 94.539 C 209.501 94.816,209.600 95.148,209.551 95.275 C 209.502 95.402,209.539 95.711,209.632 95.961 C 209.726 96.212,209.858 96.567,209.927 96.750 C 209.996 96.933,210.036 97.185,210.015 97.308 C 209.992 97.447,210.056 97.485,210.181 97.408 C 210.308 97.329,210.342 97.351,210.270 97.467 C 210.208 97.569,210.259 97.899,210.384 98.201 C 210.510 98.503,210.581 98.844,210.543 98.958 C 210.504 99.073,210.553 99.167,210.653 99.167 C 210.752 99.167,210.833 99.349,210.833 99.572 C 210.833 99.796,210.914 100.189,211.012 100.447 C 211.110 100.706,211.184 100.936,211.176 100.959 C 211.169 100.982,211.272 101.264,211.406 101.584 C 211.540 101.905,211.612 102.167,211.565 102.167 C 211.519 102.167,211.592 102.325,211.728 102.519 C 211.864 102.713,211.935 102.975,211.886 103.102 C 211.838 103.229,211.886 103.333,211.993 103.333 C 212.111 103.333,212.148 103.462,212.088 103.654 C 212.030 103.834,212.087 104.068,212.218 104.190 C 212.345 104.309,212.412 104.552,212.365 104.729 C 212.315 104.922,212.349 105.010,212.450 104.948 C 212.553 104.884,212.588 105.003,212.540 105.255 C 212.497 105.481,212.532 105.667,212.619 105.667 C 212.707 105.667,212.786 105.760,212.796 105.875 C 212.806 105.990,212.843 106.196,212.879 106.333 C 213.145 107.357,213.366 108.121,213.457 108.333 C 213.572 108.602,213.617 108.791,213.647 109.135 C 213.658 109.255,213.741 109.307,213.831 109.251 C 213.925 109.193,213.954 109.258,213.899 109.402 C 213.818 109.614,214.084 110.700,214.455 111.667 C 214.508 111.804,214.561 111.992,214.574 112.083 C 214.636 112.534,215.053 113.774,215.203 113.958 C 215.297 114.073,215.312 114.167,215.237 114.167 C 215.162 114.167,215.190 114.257,215.300 114.367 C 215.410 114.477,215.500 114.799,215.500 115.083 C 215.500 115.368,215.577 115.677,215.671 115.771 C 215.764 115.864,215.874 116.123,215.914 116.346 C 215.996 116.808,216.412 118.179,216.857 119.458 C 217.025 119.940,217.116 120.333,217.061 120.333 C 217.005 120.333,217.035 120.427,217.127 120.542 C 217.220 120.656,217.347 121.063,217.410 121.445 C 217.473 121.828,217.623 122.178,217.742 122.224 C 217.875 122.275,217.927 122.473,217.877 122.737 C 217.831 122.973,217.871 123.167,217.965 123.167 C 218.059 123.167,218.096 123.317,218.048 123.500 C 218.000 123.683,218.029 123.833,218.112 123.833 C 218.195 123.833,218.275 124.001,218.290 124.206 C 218.306 124.411,218.397 124.605,218.494 124.637 C 218.590 124.669,218.626 124.764,218.575 124.848 C 218.523 124.931,218.545 125.000,218.625 125.000 C 218.794 125.000,219.093 124.343,219.914 122.167 C 220.243 121.296,220.612 120.358,220.735 120.083 C 220.857 119.808,221.093 119.208,221.258 118.750 C 221.422 118.292,221.607 117.842,221.667 117.750 C 221.727 117.658,221.911 117.208,222.076 116.750 C 222.241 116.292,222.475 115.692,222.597 115.417 C 222.719 115.142,222.973 114.542,223.162 114.083 L 223.504 113.250 223.409 113.917 C 223.356 114.283,222.810 116.871,222.194 119.667 L 221.075 124.750 220.496 124.833 C 220.177 124.879,222.002 124.917,224.550 124.917 C 228.881 124.917,229.178 124.898,229.107 124.625 C 229.065 124.464,229.088 124.368,229.158 124.411 C 229.270 124.480,229.715 122.790,229.947 121.417 C 229.993 121.142,230.098 120.835,230.180 120.735 C 230.262 120.636,230.359 120.261,230.395 119.902 C 230.432 119.543,230.507 119.138,230.562 119.000 C 230.617 118.862,230.696 118.563,230.736 118.333 C 230.776 118.104,230.820 117.917,230.834 117.917 C 230.861 117.917,230.959 117.476,231.074 116.833 C 231.184 116.216,231.246 115.982,231.483 115.285 C 231.601 114.937,231.654 114.540,231.600 114.401 C 231.546 114.258,231.575 114.193,231.669 114.251 C 231.759 114.307,231.843 114.217,231.855 114.052 C 231.893 113.502,231.982 113.098,232.415 111.500 C 232.651 110.629,232.877 109.729,232.917 109.500 C 233.037 108.822,233.090 108.616,233.317 107.947 C 233.436 107.598,233.495 107.166,233.449 106.989 C 233.402 106.811,233.432 106.708,233.516 106.760 C 233.599 106.811,233.678 106.699,233.692 106.510 C 233.705 106.321,233.724 106.073,233.733 105.958 C 233.742 105.844,233.809 105.706,233.881 105.653 C 233.953 105.600,234.028 105.214,234.048 104.796 C 234.067 104.377,234.148 104.074,234.226 104.122 C 234.305 104.169,234.318 104.049,234.257 103.854 C 234.195 103.659,234.212 103.500,234.294 103.500 C 234.377 103.500,234.453 103.406,234.463 103.292 C 234.474 103.177,234.624 102.483,234.798 101.750 L 235.114 100.417 235.334 101.417 C 235.455 101.967,235.633 102.567,235.729 102.750 C 235.825 102.933,235.886 103.147,235.863 103.226 C 235.776 103.525,236.031 104.001,236.220 103.895 C 236.367 103.812,236.369 103.836,236.228 103.990 C 236.027 104.207,236.117 104.884,236.329 104.753 C 236.397 104.711,236.433 104.861,236.408 105.088 C 236.383 105.315,236.421 105.500,236.492 105.500 C 236.562 105.500,236.585 105.688,236.541 105.917 C 236.497 106.146,236.532 106.333,236.619 106.333 C 236.707 106.333,236.784 106.427,236.791 106.542 C 236.843 107.355,237.062 108.277,237.237 108.417 C 237.352 108.508,237.414 108.679,237.374 108.797 C 237.334 108.915,237.429 109.205,237.585 109.443 C 237.744 109.685,237.776 109.818,237.658 109.744 C 237.500 109.647,237.478 109.715,237.569 110.016 C 237.637 110.236,237.769 110.754,237.863 111.167 C 237.958 111.579,238.102 111.988,238.184 112.075 C 238.266 112.162,238.333 112.407,238.333 112.619 C 238.333 112.831,238.403 113.135,238.488 113.294 C 238.573 113.453,238.733 114.050,238.843 114.621 C 238.954 115.192,239.090 115.631,239.147 115.597 C 239.204 115.562,239.266 115.808,239.285 116.142 C 239.304 116.476,239.473 117.229,239.660 117.813 C 239.847 118.398,240.000 119.054,240.000 119.272 C 240.000 119.489,240.075 119.667,240.167 119.667 C 240.258 119.667,240.318 119.723,240.299 119.792 C 240.244 119.989,240.500 121.365,240.629 121.567 C 240.693 121.668,240.755 121.806,240.768 121.875 C 240.781 121.944,240.806 122.019,240.824 122.042 C 240.860 122.089,241.012 122.972,241.038 123.292 C 241.048 123.406,241.118 123.500,241.194 123.500 C 241.271 123.500,241.318 123.556,241.300 123.625 C 241.281 123.694,241.319 124.013,241.383 124.333 L 241.500 124.917 246.375 124.917 C 249.056 124.917,251.014 124.894,250.725 124.866 L 250.200 124.815 248.705 118.812 C 247.883 115.511,247.266 112.871,247.334 112.947 C 247.402 113.022,247.705 113.758,248.007 114.583 C 248.309 115.408,248.607 116.158,248.668 116.250 C 248.729 116.342,248.953 116.904,249.167 117.500 C 249.380 118.096,249.605 118.658,249.667 118.750 C 249.728 118.842,249.953 119.404,250.167 120.000 C 250.380 120.596,250.605 121.158,250.666 121.250 C 250.728 121.342,251.062 122.184,251.409 123.122 C 252.117 125.037,252.190 125.077,252.490 123.716 C 252.608 123.185,252.763 122.675,252.836 122.583 C 252.908 122.492,252.991 122.192,253.019 121.917 C 253.048 121.642,253.139 121.323,253.222 121.208 C 253.306 121.094,253.318 121.000,253.250 121.000 C 253.182 121.000,253.221 120.886,253.337 120.746 C 253.453 120.606,253.502 120.447,253.447 120.392 C 253.392 120.336,253.460 120.071,253.599 119.803 C 253.738 119.534,253.883 119.113,253.921 118.866 C 254.017 118.253,254.088 117.987,254.289 117.500 C 254.383 117.271,254.436 116.952,254.406 116.792 C 254.377 116.631,254.432 116.500,254.529 116.500 C 254.626 116.500,254.666 116.350,254.618 116.166 C 254.570 115.983,254.595 115.873,254.674 115.921 C 254.792 115.994,255.003 115.304,255.084 114.583 C 255.094 114.492,255.154 114.304,255.217 114.167 C 255.498 113.552,256.152 111.112,256.071 110.980 C 256.021 110.899,256.047 110.833,256.129 110.833 C 256.211 110.833,256.281 110.740,256.285 110.625 C 256.289 110.510,256.556 109.554,256.879 108.500 C 257.202 107.446,257.493 106.396,257.525 106.167 C 257.557 105.938,257.644 105.705,257.718 105.651 C 257.793 105.596,257.868 105.278,257.885 104.943 C 257.902 104.609,257.961 104.334,258.015 104.334 C 258.127 104.333,258.523 103.093,258.477 102.886 C 258.461 102.811,258.491 102.638,258.544 102.500 C 258.955 101.441,259.272 100.350,259.237 100.115 C 259.215 99.960,259.265 99.833,259.348 99.833 C 259.432 99.833,259.500 99.655,259.500 99.437 C 259.500 99.219,259.616 98.762,259.759 98.422 C 259.901 98.081,259.986 97.716,259.948 97.609 C 259.910 97.503,259.982 97.214,260.107 96.965 C 260.232 96.717,260.358 96.305,260.387 96.049 C 260.416 95.793,260.575 95.302,260.739 94.958 C 260.904 94.614,260.999 94.182,260.951 93.999 C 260.904 93.816,260.926 93.704,261.002 93.751 C 261.120 93.824,261.379 93.103,261.421 92.583 C 261.428 92.492,261.518 92.154,261.619 91.833 C 261.913 90.909,261.685 88.500,261.305 88.500 C 261.218 88.500,261.193 88.425,261.250 88.333 C 261.307 88.242,261.290 88.167,261.213 88.167 C 261.136 88.167,260.986 87.935,260.879 87.651 C 260.752 87.317,260.614 87.180,260.483 87.261 C 260.355 87.340,260.325 87.315,260.401 87.192 C 260.473 87.075,260.353 86.936,260.093 86.837 C 259.859 86.748,259.667 86.612,259.667 86.535 C 259.667 86.458,259.363 86.233,258.991 86.035 C 258.201 85.613,256.167 85.338,256.167 85.653 C 256.167 85.763,256.093 85.808,256.003 85.752 C 255.797 85.624,254.500 86.005,254.500 86.193 C 254.500 86.270,254.444 86.317,254.375 86.296 C 254.016 86.190,252.520 87.674,252.437 88.219 C 252.421 88.327,252.349 88.510,252.277 88.625 C 252.206 88.740,252.208 88.834,252.282 88.836 C 252.356 88.837,252.339 88.894,252.243 88.961 C 252.072 89.081,251.504 91.274,251.391 92.250 C 251.359 92.525,251.295 92.853,251.247 92.980 C 251.014 93.600,250.666 95.697,250.768 95.863 C 250.845 95.987,250.809 96.005,250.664 95.915 C 250.507 95.818,250.472 95.853,250.544 96.040 C 250.599 96.183,250.593 96.352,250.530 96.414 C 250.468 96.477,250.410 96.653,250.403 96.806 C 250.395 96.958,250.297 97.306,250.185 97.578 C 250.072 97.851,250.015 98.207,250.058 98.370 C 250.100 98.533,250.063 98.711,249.976 98.765 C 249.888 98.819,249.847 98.951,249.885 99.057 C 249.924 99.163,249.893 99.371,249.817 99.519 C 249.676 99.794,249.481 100.654,249.423 101.250 C 249.406 101.433,249.301 101.801,249.190 102.067 C 249.080 102.333,249.016 102.632,249.050 102.732 C 249.083 102.832,249.014 103.233,248.896 103.623 C 248.779 104.014,248.726 104.333,248.778 104.333 C 248.831 104.333,248.798 104.427,248.704 104.542 C 248.611 104.656,248.486 105.120,248.425 105.572 C 248.365 106.024,248.268 106.470,248.210 106.564 C 248.111 106.726,247.873 107.852,247.467 110.083 C 247.246 111.299,247.065 111.589,246.733 111.257 C 246.465 110.988,246.420 110.764,246.666 110.916 C 246.766 110.978,246.758 110.833,246.646 110.551 C 246.544 110.294,246.439 109.920,246.413 109.721 C 246.323 109.031,246.128 108.249,246.003 108.083 C 245.935 107.992,245.873 107.804,245.866 107.667 C 245.859 107.529,245.765 107.079,245.658 106.667 C 245.550 106.254,245.458 105.823,245.453 105.708 C 245.448 105.594,245.382 105.500,245.306 105.500 C 245.229 105.500,245.181 105.444,245.198 105.375 C 245.261 105.125,244.800 102.833,244.687 102.833 C 244.623 102.833,244.553 102.595,244.530 102.303 C 244.508 102.011,244.431 101.692,244.360 101.594 C 244.288 101.497,244.239 101.304,244.251 101.167 C 244.263 101.029,244.195 100.767,244.101 100.583 C 244.007 100.400,243.911 100.063,243.888 99.833 C 243.865 99.604,243.818 99.304,243.783 99.167 C 243.749 99.029,243.662 98.635,243.591 98.290 C 243.520 97.945,243.394 97.621,243.312 97.570 C 243.229 97.519,243.202 97.411,243.252 97.330 C 243.302 97.249,243.158 96.523,242.932 95.716 C 242.705 94.910,242.481 94.031,242.433 93.764 C 242.385 93.497,242.274 93.207,242.186 93.119 C 242.098 93.031,242.061 92.869,242.103 92.758 C 242.146 92.648,242.093 92.338,241.986 92.070 C 241.880 91.803,241.772 91.370,241.748 91.109 C 241.685 90.443,240.828 88.484,240.649 88.595 C 240.567 88.645,240.501 88.551,240.501 88.385 C 240.503 88.004,238.872 86.500,238.457 86.500 C 238.287 86.500,238.187 86.434,238.237 86.354 C 238.392 86.104,236.306 85.611,235.083 85.608 C 233.853 85.605,232.481 85.982,231.941 86.470 C 231.771 86.624,231.583 86.739,231.524 86.725 C 231.465 86.711,231.229 86.848,231.000 87.029 C 230.771 87.210,230.689 87.303,230.817 87.237 C 230.971 87.157,231.011 87.181,230.933 87.308 C 230.867 87.413,230.707 87.500,230.577 87.500 C 230.447 87.500,230.210 87.706,230.049 87.958 C 229.889 88.210,229.717 88.454,229.667 88.500 C 229.223 88.906,228.226 91.763,228.374 92.205 C 228.411 92.316,228.350 92.585,228.237 92.802 C 228.125 93.019,228.052 93.377,228.077 93.598 C 228.101 93.819,228.056 94.000,227.977 94.000 C 227.898 94.000,227.833 94.192,227.833 94.428 C 227.833 94.663,227.767 94.982,227.686 95.136 C 227.606 95.290,227.499 95.754,227.449 96.167 C 227.400 96.579,227.274 97.140,227.170 97.412 C 227.065 97.685,226.958 98.247,226.931 98.662 C 226.903 99.077,226.834 99.529,226.776 99.667 C 226.718 99.804,226.649 100.067,226.622 100.250 C 226.595 100.433,226.525 100.662,226.465 100.757 C 226.359 100.927,226.160 102.056,226.109 102.776 C 226.095 102.973,226.027 103.100,225.958 103.058 C 225.846 102.988,225.808 103.195,225.764 104.125 C 225.756 104.285,225.690 104.461,225.617 104.515 C 225.544 104.568,225.459 104.990,225.427 105.451 C 225.395 105.912,225.294 106.430,225.204 106.603 C 225.057 106.882,224.821 107.974,224.757 108.670 C 224.745 108.809,224.691 108.996,224.639 109.086 C 224.587 109.176,224.451 109.757,224.336 110.377 C 224.039 111.985,223.946 111.906,223.364 109.549 C 223.078 108.390,222.758 107.390,222.654 107.325 C 222.550 107.261,222.512 107.059,222.570 106.876 C 222.628 106.693,222.587 106.328,222.480 106.064 C 222.373 105.799,222.264 105.373,222.238 105.115 C 222.212 104.858,222.121 104.558,222.034 104.448 C 221.948 104.339,221.872 104.001,221.866 103.697 C 221.860 103.393,221.756 103.025,221.636 102.879 C 221.515 102.734,221.435 102.589,221.458 102.558 C 221.498 102.502,221.496 102.457,221.434 102.083 C 221.257 101.017,221.112 100.500,220.991 100.500 C 220.910 100.500,220.887 100.387,220.941 100.248 C 220.994 100.109,220.947 99.887,220.838 99.755 C 220.728 99.623,220.683 99.441,220.738 99.352 C 220.794 99.263,220.766 99.145,220.677 99.090 C 220.588 99.034,220.562 98.867,220.619 98.717 C 220.686 98.541,220.658 98.486,220.537 98.560 C 220.416 98.635,220.375 98.551,220.420 98.318 C 220.457 98.122,220.381 97.754,220.251 97.502 C 220.120 97.249,220.055 97.000,220.107 96.949 C 220.158 96.898,220.144 96.764,220.075 96.653 C 220.006 96.541,219.923 96.153,219.890 95.790 C 219.857 95.428,219.776 95.045,219.710 94.940 C 219.643 94.836,219.584 94.712,219.578 94.667 C 219.502 94.037,219.286 93.333,219.169 93.333 C 219.086 93.333,219.048 93.185,219.083 93.004 C 219.118 92.822,219.079 92.632,218.997 92.582 C 218.915 92.531,218.889 92.383,218.939 92.253 C 218.989 92.122,218.971 91.922,218.900 91.807 C 218.829 91.692,218.754 91.439,218.733 91.246 C 218.713 91.052,218.606 90.562,218.495 90.155 C 218.288 89.393,218.202 89.015,218.179 88.782 C 218.172 88.708,218.093 88.693,218.002 88.749 C 217.911 88.805,217.878 88.745,217.928 88.613 C 217.978 88.483,217.906 88.263,217.768 88.125 C 217.629 87.986,217.553 87.836,217.597 87.791 C 217.737 87.652,216.172 86.144,215.998 86.251 C 215.907 86.307,215.833 86.269,215.833 86.167 C 215.833 86.064,215.766 86.022,215.684 86.073 C 215.602 86.123,215.488 86.042,215.430 85.892 C 215.373 85.742,215.278 85.667,215.220 85.725 C 215.162 85.783,215.032 85.765,214.932 85.685 C 214.658 85.465,213.357 85.374,212.417 85.508 M172.791 85.598 C 172.722 85.666,172.667 94.541,172.667 105.319 L 172.667 124.917 182.375 124.864 C 187.715 124.835,192.346 124.811,192.667 124.811 C 193.937 124.810,198.000 123.789,198.000 123.470 C 198.000 123.395,198.145 123.333,198.321 123.333 C 198.498 123.333,198.761 123.215,198.905 123.071 C 199.049 122.927,199.167 122.867,199.167 122.938 C 199.167 123.009,199.257 122.977,199.367 122.867 C 199.477 122.757,199.702 122.667,199.867 122.667 C 200.032 122.667,200.167 122.592,200.167 122.500 C 200.167 122.408,200.279 122.333,200.417 122.333 C 200.554 122.333,200.667 122.267,200.667 122.186 C 200.667 122.104,200.929 121.913,201.250 121.761 C 201.571 121.609,201.833 121.413,201.833 121.326 C 201.833 121.238,201.938 121.167,202.066 121.167 C 202.193 121.167,202.341 121.054,202.394 120.917 C 202.446 120.779,202.599 120.667,202.734 120.667 C 202.868 120.667,203.023 120.535,203.079 120.375 C 203.135 120.215,203.463 119.860,203.809 119.587 C 204.474 119.062,205.500 117.799,205.500 117.507 C 205.500 117.411,205.556 117.333,205.625 117.333 C 205.775 117.333,206.619 116.020,206.696 115.667 C 206.726 115.529,206.788 115.379,206.833 115.333 C 207.029 115.138,207.661 113.679,207.917 112.833 C 208.069 112.329,208.263 111.742,208.349 111.529 C 208.434 111.316,208.459 111.069,208.404 110.980 C 208.350 110.891,208.383 110.724,208.479 110.609 C 208.794 110.229,209.048 107.960,209.050 105.500 C 209.053 102.112,209.021 101.483,208.818 100.827 C 208.720 100.509,208.612 99.982,208.577 99.655 C 208.543 99.328,208.425 98.840,208.315 98.572 C 208.205 98.303,208.106 98.008,208.094 97.917 C 208.025 97.350,207.784 96.667,207.653 96.667 C 207.569 96.667,207.500 96.451,207.500 96.187 C 207.500 95.923,207.387 95.614,207.250 95.500 C 207.112 95.386,207.000 95.192,207.000 95.069 C 207.000 94.695,205.498 92.345,204.811 91.644 C 204.457 91.282,204.167 90.931,204.167 90.864 C 204.167 90.728,203.635 90.239,203.496 90.246 C 203.448 90.248,203.138 89.987,202.807 89.667 C 202.053 88.936,201.888 88.810,201.167 88.410 C 200.846 88.232,200.452 87.981,200.292 87.851 C 200.131 87.721,200.000 87.676,200.000 87.750 C 200.000 87.824,199.869 87.768,199.708 87.626 C 199.333 87.292,198.223 86.833,198.097 86.959 C 198.044 87.012,198.000 86.956,198.000 86.833 C 198.000 86.711,197.956 86.655,197.903 86.708 C 197.850 86.761,197.531 86.686,197.195 86.540 C 196.858 86.394,196.358 86.252,196.083 86.223 C 195.223 86.134,194.917 86.072,194.705 85.941 C 194.592 85.871,194.425 85.860,194.333 85.917 C 194.242 85.973,194.167 85.941,194.167 85.845 C 194.167 85.630,195.318 85.660,183.166 85.559 C 177.527 85.513,172.859 85.530,172.791 85.598 M136.648 87.406 C 136.613 87.441,135.802 87.515,134.848 87.571 C 133.893 87.626,133.017 87.750,132.901 87.847 C 132.785 87.943,132.441 88.027,132.137 88.033 C 131.832 88.039,131.508 88.088,131.417 88.143 C 131.325 88.197,131.175 88.246,131.083 88.252 C 130.641 88.282,129.387 88.724,129.153 88.933 C 129.008 89.062,128.844 89.122,128.789 89.067 C 128.734 89.012,128.590 89.028,128.469 89.103 C 128.349 89.179,128.122 89.260,127.966 89.285 C 127.506 89.356,126.657 89.934,126.792 90.083 C 126.861 90.158,126.836 90.174,126.737 90.118 C 126.515 89.992,125.173 90.659,124.388 91.285 C 124.067 91.541,123.754 91.752,123.694 91.754 C 123.435 91.764,122.667 92.390,122.667 92.591 C 122.667 92.711,122.498 92.836,122.292 92.867 C 122.085 92.899,121.935 93.017,121.958 93.129 C 121.981 93.241,121.887 93.333,121.750 93.333 C 121.612 93.333,121.500 93.450,121.500 93.593 C 121.500 93.736,121.425 93.807,121.333 93.750 C 121.241 93.693,121.093 93.839,121.004 94.073 C 120.915 94.308,120.798 94.500,120.744 94.500 C 120.691 94.500,120.704 94.406,120.773 94.292 C 120.843 94.177,120.586 94.379,120.203 94.739 C 119.820 95.100,119.535 95.424,119.569 95.458 C 119.603 95.492,119.471 95.690,119.274 95.898 C 118.674 96.532,118.333 96.995,118.333 97.178 C 118.333 97.274,118.273 97.316,118.199 97.270 C 118.125 97.225,117.882 97.539,117.658 97.969 C 117.433 98.398,117.204 98.787,117.148 98.833 C 116.972 98.978,116.510 99.954,116.583 100.028 C 116.622 100.066,116.469 100.312,116.243 100.575 C 116.018 100.837,115.833 101.190,115.833 101.359 C 115.833 101.528,115.772 101.667,115.697 101.667 C 115.581 101.667,114.904 103.493,114.764 104.186 C 114.738 104.313,114.673 104.529,114.618 104.667 C 114.523 104.908,114.254 106.195,114.032 107.467 C 113.941 107.988,113.915 112.631,113.994 114.250 C 114.007 114.525,114.135 114.928,114.276 115.146 C 114.439 115.394,114.457 115.493,114.325 115.411 C 114.174 115.318,114.157 115.348,114.265 115.516 C 114.347 115.645,114.428 115.900,114.445 116.083 C 114.502 116.709,114.631 117.250,114.891 117.958 C 115.035 118.348,115.099 118.668,115.034 118.669 C 114.970 118.671,114.995 118.727,115.091 118.794 C 115.188 118.862,115.358 119.232,115.471 119.618 C 115.583 120.003,115.786 120.429,115.921 120.564 C 116.056 120.699,116.167 120.932,116.167 121.081 C 116.167 121.244,116.244 121.305,116.359 121.234 C 116.474 121.163,116.506 121.188,116.439 121.297 C 116.316 121.497,116.987 123.000,117.200 123.000 C 117.273 123.000,117.333 123.101,117.333 123.224 C 117.333 123.348,117.483 123.622,117.667 123.833 C 117.850 124.045,118.000 124.263,118.000 124.319 C 118.000 124.375,118.206 124.643,118.458 124.914 C 118.710 125.186,118.917 125.460,118.917 125.523 C 118.917 125.701,121.567 128.247,121.708 128.204 C 121.777 128.184,121.833 128.279,121.833 128.417 C 121.833 128.554,121.890 128.668,121.958 128.669 C 122.027 128.671,122.458 129.008,122.916 129.419 C 123.373 129.830,123.797 130.167,123.857 130.167 C 123.917 130.167,124.404 130.461,124.940 130.821 C 125.475 131.181,125.943 131.446,125.979 131.410 C 126.015 131.374,126.231 131.491,126.459 131.670 C 126.686 131.849,126.939 131.955,127.020 131.905 C 127.100 131.855,127.167 131.884,127.167 131.970 C 127.167 132.181,128.802 132.872,129.005 132.747 C 129.094 132.692,129.167 132.722,129.167 132.814 C 129.167 132.906,129.319 132.952,129.504 132.916 C 129.690 132.880,129.805 132.911,129.760 132.984 C 129.655 133.154,130.952 133.550,131.170 133.415 C 131.260 133.359,131.333 133.384,131.333 133.469 C 131.333 133.601,132.105 133.816,133.000 133.932 C 133.137 133.950,133.287 133.979,133.333 133.996 C 134.796 134.541,143.333 134.082,143.333 133.457 C 143.333 133.378,143.405 133.358,143.493 133.412 C 143.580 133.466,143.899 133.407,144.201 133.281 C 144.503 133.155,144.787 133.051,144.833 133.050 C 145.427 133.040,148.682 131.493,148.552 131.283 C 148.495 131.191,148.528 131.164,148.626 131.225 C 148.877 131.380,149.353 131.167,149.223 130.957 C 149.162 130.858,149.195 130.831,149.298 130.895 C 149.398 130.957,149.646 130.837,149.848 130.629 C 150.050 130.420,150.162 130.362,150.095 130.500 C 150.022 130.653,150.068 130.637,150.214 130.458 C 150.346 130.298,150.522 130.167,150.606 130.167 C 150.690 130.167,151.005 129.942,151.306 129.667 C 151.608 129.392,151.917 129.167,151.993 129.167 C 152.070 129.167,152.363 128.904,152.644 128.583 C 152.926 128.262,153.222 128.000,153.302 128.000 C 153.543 128.000,154.011 127.399,153.875 127.264 C 153.806 127.195,153.851 127.164,153.974 127.194 C 154.097 127.225,154.284 127.103,154.391 126.924 C 154.497 126.744,154.796 126.407,155.056 126.174 C 155.546 125.735,156.587 124.333,156.423 124.333 C 156.372 124.333,156.559 124.094,156.838 123.802 C 157.117 123.510,157.310 123.179,157.266 123.066 C 157.223 122.953,157.300 122.818,157.438 122.765 C 157.575 122.712,157.644 122.598,157.590 122.511 C 157.537 122.425,157.588 122.293,157.705 122.219 C 157.994 122.034,158.845 120.320,158.735 120.143 C 158.687 120.064,158.718 120.000,158.805 120.000 C 158.944 120.000,159.241 119.192,159.166 119.019 C 159.151 118.983,159.204 118.908,159.285 118.852 C 159.415 118.762,159.683 117.905,160.168 116.027 C 160.247 115.720,160.271 115.364,160.221 115.235 C 160.172 115.106,160.215 115.000,160.318 115.000 C 160.421 115.000,160.506 114.794,160.507 114.542 C 160.509 113.727,160.671 111.599,160.772 111.042 C 160.837 110.688,160.805 110.500,160.680 110.500 C 160.547 110.500,160.538 110.408,160.649 110.199 C 160.747 110.016,160.751 109.805,160.658 109.658 C 160.445 109.322,160.463 109.124,160.692 109.266 C 160.818 109.343,160.839 109.311,160.754 109.174 C 160.611 108.942,160.471 107.845,160.492 107.125 C 160.499 106.873,160.425 106.667,160.326 106.667 C 160.228 106.667,160.184 106.606,160.230 106.533 C 160.275 106.459,160.235 106.065,160.141 105.658 C 160.046 105.250,159.944 104.804,159.914 104.667 C 159.884 104.529,159.844 104.379,159.826 104.333 C 159.808 104.287,159.803 104.194,159.814 104.125 C 159.824 104.056,159.754 104.000,159.657 104.000 C 159.560 104.000,159.522 103.932,159.574 103.849 C 159.681 103.675,158.997 101.778,158.797 101.694 C 158.724 101.663,158.707 101.569,158.760 101.485 C 158.812 101.400,158.681 101.088,158.470 100.791 C 158.258 100.493,158.104 100.231,158.128 100.207 C 158.214 100.122,157.332 98.515,157.127 98.384 C 157.011 98.310,156.804 98.025,156.666 97.750 C 156.529 97.475,156.267 97.082,156.083 96.876 C 155.900 96.670,155.582 96.295,155.376 96.043 C 154.698 95.211,153.463 93.912,153.593 94.167 C 153.668 94.314,153.658 94.360,153.568 94.278 C 153.485 94.201,153.417 94.077,153.417 94.002 C 153.417 93.858,152.243 92.667,152.102 92.667 C 152.057 92.667,151.781 92.448,151.488 92.180 C 151.173 91.893,150.852 91.734,150.701 91.792 C 150.533 91.856,150.487 91.823,150.567 91.694 C 150.638 91.579,150.563 91.450,150.386 91.382 C 150.219 91.319,149.941 91.134,149.766 90.973 C 149.592 90.811,149.386 90.718,149.308 90.766 C 149.230 90.814,149.167 90.774,149.167 90.677 C 149.167 90.579,149.110 90.516,149.042 90.537 C 148.973 90.557,148.607 90.365,148.228 90.111 C 147.850 89.857,147.381 89.637,147.187 89.622 C 146.992 89.608,146.833 89.543,146.833 89.477 C 146.833 89.412,146.552 89.273,146.208 89.167 C 145.865 89.061,145.471 88.931,145.333 88.878 C 145.196 88.824,144.990 88.796,144.875 88.814 C 144.760 88.833,144.667 88.762,144.667 88.656 C 144.667 88.551,144.563 88.504,144.436 88.553 C 144.309 88.602,144.050 88.533,143.862 88.401 C 143.673 88.269,143.458 88.174,143.384 88.190 C 143.310 88.206,143.137 88.172,143.000 88.115 C 142.862 88.057,142.563 87.982,142.333 87.947 C 142.104 87.913,141.784 87.827,141.623 87.757 C 141.461 87.687,141.180 87.668,140.998 87.716 C 140.816 87.763,140.634 87.748,140.593 87.682 C 140.552 87.616,139.719 87.548,138.743 87.530 C 137.766 87.513,136.910 87.464,136.840 87.421 C 136.770 87.378,136.684 87.371,136.648 87.406 M192.130 94.238 C 192.870 94.348,193.333 94.528,193.333 94.706 C 193.333 94.797,193.483 94.833,193.667 94.785 C 193.883 94.728,194.000 94.780,194.000 94.932 C 194.000 95.061,194.056 95.158,194.125 95.147 C 194.459 95.094,194.663 95.187,194.625 95.375 C 194.602 95.490,194.683 95.563,194.804 95.538 C 194.925 95.512,194.986 95.555,194.938 95.633 C 194.833 95.801,195.417 96.332,195.710 96.336 C 195.845 96.338,195.830 96.394,195.667 96.500 C 195.455 96.637,195.463 96.662,195.718 96.664 C 195.884 96.666,195.976 96.737,195.924 96.822 C 195.871 96.907,195.979 97.083,196.163 97.212 C 196.347 97.341,196.453 97.491,196.399 97.546 C 196.248 97.696,196.760 98.350,196.917 98.207 C 196.992 98.139,196.999 98.178,196.932 98.294 C 196.866 98.410,196.929 98.740,197.072 99.028 C 197.216 99.316,197.333 99.652,197.333 99.776 C 197.333 99.899,197.406 100.000,197.495 100.000 C 197.584 100.000,197.619 100.097,197.573 100.216 C 197.528 100.334,197.594 100.728,197.721 101.091 C 197.848 101.453,197.932 101.881,197.907 102.041 C 197.883 102.201,197.913 102.363,197.973 102.400 C 198.266 102.581,197.985 108.904,197.657 109.517 C 197.558 109.703,197.471 110.074,197.463 110.344 C 197.456 110.613,197.389 110.833,197.315 110.833 C 197.241 110.833,197.088 111.152,196.976 111.542 C 196.864 111.931,196.635 112.386,196.466 112.552 C 196.297 112.717,196.198 112.916,196.245 112.992 C 196.293 113.069,196.219 113.175,196.082 113.227 C 195.945 113.280,195.833 113.429,195.833 113.559 C 195.833 113.689,195.643 113.919,195.411 114.071 C 195.179 114.224,195.035 114.422,195.090 114.511 C 195.146 114.601,195.130 114.664,195.054 114.651 C 194.700 114.590,194.500 114.689,194.500 114.927 C 194.500 115.069,194.430 115.143,194.344 115.090 C 194.258 115.036,194.110 115.126,194.015 115.288 C 193.921 115.451,193.841 115.526,193.838 115.456 C 193.836 115.386,193.542 115.513,193.185 115.738 C 192.828 115.964,192.491 116.102,192.435 116.046 C 192.379 115.990,192.333 116.030,192.333 116.134 C 192.333 116.238,192.221 116.280,192.083 116.227 C 191.942 116.173,191.833 116.223,191.833 116.343 C 191.833 116.460,191.784 116.506,191.724 116.446 C 191.663 116.386,191.499 116.429,191.358 116.543 C 191.148 116.713,191.128 116.708,191.245 116.513 C 191.358 116.327,191.320 116.306,191.069 116.416 C 190.894 116.492,189.081 116.588,187.042 116.629 L 183.333 116.703 183.333 105.355 L 183.333 94.007 186.875 93.962 C 188.823 93.937,190.700 93.974,191.047 94.044 C 191.393 94.113,191.880 94.201,192.130 94.238 "
      stroke="none" fill="#049bbb" fill-rule="evenodd"></path>
    <path id="path2"
      d="M122.212 84.994 C 120.435 85.932,118.394 87.297,117.344 88.247 C 115.645 89.785,113.045 92.567,112.833 93.073 C 112.787 93.183,112.469 93.612,112.125 94.028 C 111.781 94.444,111.500 94.865,111.500 94.964 C 111.500 95.062,111.406 95.245,111.292 95.370 C 110.915 95.779,109.755 97.955,109.267 99.167 C 109.101 99.579,108.885 100.104,108.788 100.333 C 108.691 100.563,108.599 100.787,108.583 100.833 C 108.567 100.879,108.514 101.029,108.464 101.167 C 108.414 101.304,108.245 101.867,108.088 102.417 C 107.931 102.967,107.731 103.656,107.644 103.948 C 107.491 104.463,107.271 105.619,107.032 107.167 C 106.787 108.760,106.915 115.012,107.220 116.333 C 107.379 117.021,107.540 117.752,107.578 117.959 C 107.617 118.166,107.686 118.397,107.733 118.473 C 107.780 118.549,107.864 118.868,107.919 119.181 C 107.974 119.494,108.127 119.968,108.259 120.234 C 108.392 120.500,108.500 120.816,108.500 120.937 C 108.500 121.057,108.623 121.439,108.774 121.786 C 108.925 122.133,109.162 122.679,109.301 123.000 C 109.747 124.029,110.083 124.675,111.158 126.572 C 111.701 127.531,112.707 129.000,112.821 129.000 C 112.880 129.000,113.070 129.244,113.244 129.542 C 113.571 130.102,114.085 130.683,115.686 132.303 C 117.200 133.835,119.886 135.998,120.278 135.999 C 120.385 136.000,120.497 136.064,120.528 136.141 C 120.633 136.408,124.854 138.514,126.333 139.038 C 127.530 139.462,129.307 139.999,129.833 140.096 C 130.063 140.138,130.625 140.253,131.083 140.351 C 132.745 140.707,137.110 140.850,139.167 140.617 C 140.304 140.488,141.742 140.300,141.994 140.246 C 144.576 139.702,145.681 139.380,147.822 138.549 C 149.282 137.981,149.498 137.832,149.323 137.512 C 149.244 137.368,148.990 136.819,148.759 136.292 C 148.296 135.239,148.227 135.203,147.450 135.618 C 147.157 135.775,146.879 135.909,146.833 135.916 C 146.787 135.924,146.262 136.093,145.667 136.292 C 144.493 136.683,142.171 137.318,141.500 137.431 C 137.588 138.088,133.313 138.016,130.417 137.243 C 127.317 136.416,124.168 135.060,121.934 133.590 C 121.301 133.174,120.750 132.833,120.708 132.833 C 120.549 132.833,118.223 130.856,117.351 129.980 C 116.645 129.270,116.351 128.927,115.301 127.584 C 114.871 127.034,114.403 126.452,114.260 126.292 C 114.117 126.131,114.049 126.000,114.109 126.000 C 114.169 126.000,114.101 125.869,113.957 125.708 C 113.214 124.878,110.972 120.003,110.730 118.692 C 110.668 118.357,110.511 117.783,110.381 117.417 C 110.250 117.050,110.113 116.487,110.076 116.167 C 110.039 115.846,109.939 115.058,109.855 114.417 C 109.691 113.180,109.729 108.317,109.910 107.333 C 109.969 107.013,110.091 106.319,110.182 105.792 C 110.273 105.265,110.457 104.526,110.589 104.149 C 110.722 103.773,110.793 103.403,110.746 103.327 C 110.699 103.252,110.737 103.143,110.831 103.085 C 110.924 103.027,111.000 102.854,111.001 102.698 C 111.002 102.543,111.098 102.229,111.215 102.000 C 111.332 101.771,111.532 101.246,111.660 100.833 C 111.789 100.421,111.970 99.982,112.064 99.858 C 112.158 99.734,112.248 99.544,112.265 99.435 C 112.281 99.325,112.528 98.856,112.813 98.391 C 113.099 97.927,113.333 97.476,113.333 97.390 C 113.333 97.305,113.447 97.088,113.586 96.909 C 113.725 96.730,114.135 96.171,114.497 95.667 C 115.322 94.520,115.256 94.605,116.243 93.414 C 117.111 92.366,117.717 91.767,119.070 90.615 C 119.521 90.231,120.027 89.785,120.195 89.625 C 120.363 89.465,120.533 89.333,120.573 89.333 C 120.613 89.333,121.121 89.008,121.703 88.609 C 122.285 88.211,122.833 87.855,122.922 87.818 C 123.447 87.597,125.000 86.613,125.000 86.501 C 125.000 86.297,124.019 84.365,123.868 84.271 C 123.795 84.226,123.049 84.551,122.212 84.994 "
      stroke="none" fill="#0484ac" fill-rule="evenodd"></path>
    <path id="path3"
      d="M249.734 122.500 C 249.988 124.047,250.252 124.833,250.516 124.833 C 250.762 124.833,250.740 124.694,250.341 123.708 C 249.690 122.102,249.658 122.037,249.734 122.500 M220.943 123.461 C 220.430 124.770,220.420 124.833,220.737 124.833 C 220.955 124.833,221.619 122.563,221.450 122.395 C 221.415 122.360,221.187 122.840,220.943 123.461 "
      stroke="none" fill="#0489a4" fill-rule="evenodd"></path>
    <path id="path4"
      d="M222.124 118.331 C 221.964 118.700,221.833 119.099,221.833 119.218 C 221.833 119.336,221.770 119.505,221.693 119.592 C 221.615 119.679,221.378 120.237,221.167 120.833 C 220.955 121.429,220.718 121.988,220.641 122.075 C 220.563 122.162,220.500 122.335,220.500 122.459 C 220.500 122.583,220.359 123.000,220.187 123.384 C 219.614 124.660,219.596 124.833,220.034 124.833 C 220.365 124.833,220.494 124.646,220.900 123.583 C 221.163 122.896,221.429 122.333,221.493 122.333 C 221.556 122.333,221.692 121.902,221.795 121.375 C 221.898 120.848,222.102 119.863,222.248 119.187 C 222.565 117.719,222.521 117.415,222.124 118.331 M248.500 117.736 C 248.500 118.099,249.388 121.442,249.531 121.618 C 249.622 121.728,249.651 121.891,249.597 121.978 C 249.542 122.066,249.561 122.163,249.638 122.194 C 249.715 122.225,249.987 122.799,250.242 123.471 C 250.680 124.626,250.935 124.939,251.326 124.807 C 251.435 124.771,251.419 124.601,251.282 124.333 C 251.165 124.104,250.778 123.129,250.423 122.167 C 250.069 121.204,249.728 120.342,249.666 120.250 C 249.605 120.158,249.380 119.596,249.168 119.000 C 248.811 118.000,248.500 117.411,248.500 117.736 "
      stroke="none" fill="#048cac" fill-rule="evenodd"></path>
    <path id="path5"
      d="M198.045 105.000 C 198.045 105.412,198.078 105.581,198.118 105.375 C 198.157 105.169,198.157 104.831,198.118 104.625 C 198.078 104.419,198.045 104.587,198.045 105.000 M247.697 114.784 C 247.960 115.865,248.223 116.862,248.281 117.000 C 248.339 117.138,248.372 117.315,248.354 117.394 C 248.336 117.473,248.425 117.623,248.552 117.727 C 248.680 117.831,248.957 118.404,249.169 119.000 C 249.381 119.596,249.604 120.158,249.666 120.250 C 249.727 120.342,250.024 121.092,250.327 121.917 C 251.143 124.144,251.481 124.833,251.754 124.833 C 251.889 124.833,252.000 124.802,252.000 124.764 C 252.000 124.663,250.860 121.670,250.599 121.083 C 250.476 120.808,250.241 120.208,250.076 119.750 C 249.911 119.292,249.726 118.842,249.665 118.750 C 249.604 118.658,249.380 118.096,249.167 117.500 C 248.953 116.904,248.729 116.342,248.668 116.250 C 248.607 116.158,248.309 115.408,248.007 114.583 C 247.230 112.462,247.145 112.518,247.697 114.784 M223.090 114.212 C 222.922 114.691,222.732 115.158,222.669 115.250 C 222.606 115.342,222.380 115.904,222.167 116.500 C 221.953 117.096,221.728 117.658,221.667 117.750 C 221.605 117.842,221.380 118.404,221.167 119.000 C 220.953 119.596,220.729 120.158,220.667 120.250 C 220.605 120.342,220.268 121.204,219.917 122.167 C 219.566 123.129,219.227 123.992,219.165 124.083 C 218.824 124.585,218.850 124.833,219.242 124.833 C 219.552 124.833,219.685 124.700,219.839 124.234 C 219.947 123.904,220.140 123.435,220.267 123.192 C 220.394 122.949,220.498 122.634,220.499 122.492 C 220.500 122.350,220.563 122.162,220.641 122.075 C 220.718 121.988,220.955 121.429,221.167 120.833 C 221.378 120.237,221.615 119.679,221.693 119.592 C 221.770 119.505,221.836 119.317,221.839 119.175 C 221.848 118.741,222.430 117.653,222.579 117.789 C 222.657 117.859,222.668 117.773,222.604 117.597 C 222.541 117.421,222.554 117.233,222.634 117.180 C 222.792 117.074,223.575 113.520,223.465 113.409 C 223.427 113.372,223.259 113.733,223.090 114.212 "
      stroke="none" fill="#0494ac" fill-rule="evenodd"></path>
    <path id="path6"
      d="M177.375 124.958 C 179.919 124.984,184.081 124.984,186.625 124.958 C 189.169 124.932,187.088 124.911,182.000 124.911 C 176.912 124.911,174.831 124.932,177.375 124.958 M219.208 124.948 C 219.369 124.990,219.631 124.990,219.792 124.948 C 219.952 124.906,219.821 124.872,219.500 124.872 C 219.179 124.872,219.048 124.906,219.208 124.948 M223.135 124.958 C 224.263 124.987,226.063 124.987,227.135 124.958 C 228.206 124.929,227.283 124.905,225.083 124.905 C 222.883 124.905,222.006 124.929,223.135 124.958 M243.698 124.958 C 244.862 124.986,246.812 124.986,248.032 124.958 C 249.252 124.929,248.300 124.906,245.917 124.906 C 243.533 124.906,242.535 124.929,243.698 124.958 M251.375 124.948 C 251.535 124.990,251.798 124.990,251.958 124.948 C 252.119 124.906,251.987 124.872,251.667 124.872 C 251.346 124.872,251.215 124.906,251.375 124.948 "
      stroke="none" fill="#1ca4c0" fill-rule="evenodd"></path>
    <path id="path7"
      d="M137.042 87.448 C 137.202 87.490,137.465 87.490,137.625 87.448 C 137.785 87.406,137.654 87.372,137.333 87.372 C 137.012 87.372,136.881 87.406,137.042 87.448 "
      stroke="none" fill="#0aa4c2" fill-rule="evenodd"></path>
    <path id="path8" d="" stroke="none" fill="#14a4c0" fill-rule="evenodd"></path>
  </g>
</svg>